<svg xmlns="http://www.w3.org/2000/svg" viewBox="0 0 1086.04 1498.24"><defs><style>.cls-1{fill-rule:evenodd;}</style></defs><title>Recurso 3</title><g id="Capa_2" data-name="Capa 2"><g id="Layer_1" data-name="Layer 1"><path class="cls-1" d="M566.1,1251.85l5.72-2.87-5.72,2.87m-59,27.55c1.5-.64,3-1.27,4.47-1.92m-9.29,4c1.38-.57,2.76-1.15,4.13-1.75C505.05,1280.29,503.67,1280.87,502.29,1281.44Zm-4.84,2c1.53-.62,3-1.24,4.57-1.89m-9.43,3.88c1.53-.61,3.06-1.25,4.58-1.87C495.65,1284.19,494.12,1284.83,492.59,1285.44Zm-4.86,1.94,4.67-1.86m-9.56,3.76c1.56-.59,3.1-1.21,4.65-1.82C485.94,1288.07,484.4,1288.69,482.84,1289.28Zm-4.89,1.87c1.59-.6,3.18-1.2,4.77-1.82M473,1293c1.61-.59,3.23-1.18,4.83-1.79M411,1311.93l3.11-.76Zm-7.48,1.72,3.2-.72Zm-4,.84c1.16-.23,2.32-.49,3.47-.74C401.84,1314,400.68,1314.26,399.52,1314.49Zm-3.72.78,3.55-.73Zm-3.39.68,3.14-.62Zm-4.31.82,3.52-.67Zm-7.53,1.32c2.49-.42,5-.86,7.47-1.31C385.56,1317.23,383.06,1317.68,380.57,1318.09Zm-3.88.64,3.62-.59ZM662.61,1411A519.77,519.77,0,0,1,221,1312.76a407.07,407.07,0,0,0,48,8.45l-1.75-.22c110.61,80.13,238,84.5,360.69,88.71C639.53,1410.11,651.11,1410.51,662.61,1411Zm112.87-41q-20.79,10.44-42.63,19c-34-3-68.81-4.18-104.06-5.39-103.48-3.57-210.51-7.24-306.76-60a407,407,0,0,0,54.46-4.91L375,1319c89.73,37.23,186.34,40.55,280.14,43.78C696.12,1364.17,736.54,1365.55,775.48,1370Zm68-41q-14.5,10.32-29.73,19.67c-50.45-8.28-103.64-10.11-157.76-12-77-2.64-156-5.35-231-28.31l-2.83.75c17.25-4.54,34.17-10,50.82-16.12l-2.78,1c69.57,16.89,141.67,19.37,212.18,21.8C737.88,1317.73,792.34,1319.58,843.52,1329ZM895,1287.11q-11.44,10.61-23.52,20.51c-59.27-13.46-123.05-15.64-188.18-17.88-55.91-1.94-112.87-3.9-168.6-13.61l-2.74,1.2c14.18-6.16,28.2-12.71,42.08-19.49,51.65,7.44,104.06,9.25,155.62,11C774,1271.06,836.91,1273.24,895,1287.11Zm41.58-43.24q-9.39,11-19.38,21.41c-64.39-17.61-134.71-20-206.65-22.5-37.86-1.3-76.19-2.62-114.29-6.34q16.66-8.7,33.17-17.48l4.25-2.25c34.47,2.83,69,4,103.23,5.2C806.53,1224.31,874.58,1226.65,936.55,1243.87Zm34.36-44.9q-7.77,11.4-16.12,22.35c-67.19-20.33-141.21-22.88-217-25.49-19.75-.68-39.64-1.36-59.56-2.39,13.78-7,27.52-13.79,41.27-20.15,14.94.65,29.83,1.16,44.66,1.67C836.45,1177.45,907,1179.88,970.91,1199Zm29.78-49.42q-7,13.23-14.74,26c-64.38-20.24-135.17-23.69-207.92-26.25C848.46,1124.86,920.86,1117.39,1000.69,1149.55Zm21-44.91q-4.38,10.68-9.21,21.1c-147.11-61.29-268.38,2.93-395.43,70.2-129.78,68.71-265.87,140.78-443.13,74.52a517.53,517.53,0,0,1-35.61-40.13c199.87,88.62,349.11,9.6,491.09-65.58C755.67,1097.87,876,1034.19,1021.69,1104.64ZM1038,1058.8q-3.21,10.65-6.87,21.09c-155.57-75-281.66-8.26-414,61.83-145.9,77.26-299.79,158.75-511.18,43.17q-11-17.4-20.7-35.71c227.08,129.29,389.94,43,544.23-38.65C760.34,1041.2,884.82,975.28,1038,1058.8Zm11.86-47.47q-2.14,10.8-4.74,21.44c-162-86.1-291.71-17.45-428,54.74-155.12,82.14-319.29,169.06-552,18.82q-6.21-15-11.5-30.5c243.75,156.33,414.48,65.93,575.84-19.52C763.71,985.19,891.22,917.68,1049.81,1011.33Zm7.41-49.74q-1.11,11.14-2.68,22.16c-166.49-94-298.53-24-437.49,49.55-160.21,84.83-330.07,174.76-575.12,3.25q-3.32-13.14-6-26.56c253.18,172.29,428.21,79.6,593.43-7.88C765.79,929.89,895.18,861.37,1057.22,961.59Zm2.49-52.65c-163.2-102.49-293.22-33.63-430.31,39-167,88.41-344,182.13-601.57,2.28v-.06q.9,11.65,2.31,23.18L35,977.44c248.78,178.1,420.31,87.28,582,1.64,140.27-74.28,273.49-144.82,442.22-46.84.29-7.14.46-14.34.46-21.56ZM281.46,1024.18c47.34-11,97.87-14.3,149.7-16.36C384.1,1021.64,334.61,1028.79,281.46,1024.18Zm181.39-43.62c-85,2.93-167.67,5.77-241,33.65-13.17-3.26-26.57-7.25-40.21-12.07,75.57-36.28,163.85-39.31,254.89-42.44,42.54-1.47,85.65-3,128.44-7.62-18.38,9.35-37,18.39-55.87,26.74C493.61,979.51,478.19,980,462.85,980.56Zm88.56-479L867.76,102.34l.11-.39a26.53,26.53,0,0,0-14.15-31.39,26.78,26.78,0,0,0-33.4,8.77L648.27,316.56ZM708,674.91h294.45a44.52,44.52,0,0,1,41.8,27.69A537.26,537.26,0,0,1,1086,910.68c0,149.22-60.77,284.3-159,382.09a544.47,544.47,0,0,1-105.3,81.75v52.57c0,39.13-32.17,71.15-71.5,71.15H335.85c-39.33,0-71.51-32-71.51-71.15v-52.57a544.71,544.71,0,0,1-105.29-81.75C60.78,1195,0,1059.9,0,910.68A537.49,537.49,0,0,1,41.83,702.6a44.51,44.51,0,0,1,41.8-27.69H369.06L322.87,855.55l5.67-11.62,5.58-11.45,5.49-11.26,5.4-11.09,5.3-10.9,5.23-10.71L360.67,778l5-10.33,5-10.17,4.86-10,4.79-9.8.28-.58.28-.59.29-.58.29-.59.27-.58.29-.59.28-.58.29-.58.28-.59.29-.58.28-.58.29-.59.28-.58.28-.59.28-.58.29-.58.29-.59.28-.59.28-.58.3-.58.28-.58.28-.59.29-.57.28-.6.28-.58.29-.57.28-.6.29-.58.28-.59.29-.57.28-.6.85-1.74.28-.58.29-.58.29-.59.28-.58.28-.6.3-.57.28-.59.28-.58.29-.58.85-1.75.28-.59.29-.58.28-.58.29-.59.28-.59.29-.58.28-.58.29-.59.28-.58.28-.59.57-1.16.28-.58.29-.59.29-.57.28-.6.28-.58.29-.59,4.33-8.88,3-6.21,5-10.33,48.15-98.82L464,566l8.82-18.1L481,531l1.91-3.89,2.27-4.68,3.35-6.87,1.87-3.85L493.7,505l.93-1.91,2.23-4.58,2.05-4.23,1.63-3.34,1.45-3,.12-.24,3-6.12.44-.9L732.3,15.35a26.67,26.67,0,0,1,13-12.91A27,27,0,0,1,763.68,1a26.68,26.68,0,0,1,15,10.72,26.37,26.37,0,0,1,4.43,17.77l0,.41L659.17,258.67l0,.09L659,259l-.22.42-.31.57-.4.74-.49.91-.58,1.07-.67,1.24-.76,1.39-.85,1.57-.93,1.73-1,1.89-1.1,2.06-1.22,2.23-1.28,2.38-1.39,2.55-1.47,2.73-1.56,2.87-1.65,3-1.74,3.21L639.52,295l-1.92,3.54-2,3.71-2.1,3.88-2.18,4-2.28,4.2-2.36,4.36-2.45,4.54-2.54,4.7-2.63,4.85-2.72,5L613.53,343l-2.89,5.36-3,5.52L601.4,365.4l-3.25,6-3.34,6.17-3.43,6.35-3.52,6.5-3.61,6.67-3.71,6.84-3.79,7-3.86,7.17-4,7.33-1.15,2.14L476.61,596l-7.28,13.45-5,9.28-.48.89-6.05,11.18-1.72,3.16-3.15,5.84L448,648.84,444.65,655l-1.47,2.72L436,670.92l-2.14,4H708Z"/></g></g></svg>